<?xml version="1.0" standalone="no"?>
<!DOCTYPE svg PUBLIC "-//W3C//DTD SVG 20010904//EN"
 "http://www.w3.org/TR/2001/REC-SVG-20010904/DTD/svg10.dtd">
<svg version="1.0" xmlns="http://www.w3.org/2000/svg"
 width="1280.000000pt" height="1035.000000pt" viewBox="0 0 1280.000000 1035.000000"
 preserveAspectRatio="xMidYMid meet">
<g transform="translate(0.000000,1035.000000) scale(0.100000,-0.100000)"
fill="#000000" stroke="none">
<path d="M5693 10321 c-341 -188 -892 -833 -1133 -1328 -55 -111 -104 -252
-98 -280 4 -21 19 -1 186 257 299 460 525 734 800 970 151 129 197 155 282
155 36 -1 77 -4 92 -8 30 -8 51 -36 256 -342 136 -204 329 -479 503 -716 104
-142 167 -261 219 -416 62 -189 96 -389 116 -698 8 -123 16 -108 44 83 53 363
-7 667 -213 1078 -124 248 -188 345 -502 764 -89 118 -191 258 -227 310 -83
120 -124 160 -185 182 -66 23 -80 22 -140 -11z"/>
<path d="M200 9692 c-51 -27 -114 -156 -139 -287 -40 -201 -65 -526 -58 -735
24 -704 121 -1351 252 -1686 81 -208 255 -531 335 -624 l30 -35 -26 70 c-188
504 -305 1057 -361 1698 -24 278 -24 942 0 1122 10 72 26 146 36 165 21 42 98
97 149 106 46 9 87 -2 300 -82 647 -243 1238 -528 1524 -736 32 -23 60 -39 64
-35 12 12 -85 135 -148 187 -257 215 -856 526 -1498 778 -278 109 -388 132
-460 94z"/>
<path d="M5533 9385 c-18 -8 -55 -35 -82 -60 -134 -125 -251 -534 -195 -680
10 -26 21 -16 28 26 9 53 36 118 150 351 99 201 156 352 140 368 -5 5 -22 3
-41 -5z"/>
<path d="M655 8929 c-5 -8 2 -21 21 -37 47 -39 265 -181 474 -307 326 -197
410 -259 410 -297 0 -11 -7 -32 -15 -48 -19 -36 -13 -40 98 -66 97 -22 108
-15 83 51 -73 191 -382 467 -688 615 -146 71 -363 122 -383 89z"/>
<path d="M5532 8683 c-42 -21 -92 -78 -92 -106 0 -31 45 -94 80 -112 16 -8 45
-15 63 -15 73 0 130 117 93 188 -31 60 -81 76 -144 45z"/>
<path d="M3785 8660 c-53 -27 -77 -66 -109 -180 -33 -115 -60 -164 -125 -222
-63 -57 -121 -75 -187 -59 -105 27 -151 65 -293 244 -108 137 -157 177 -216
177 -87 0 -117 -50 -123 -206 -5 -128 7 -208 52 -348 47 -148 61 -139 75 51 9
118 23 147 79 164 48 14 70 4 193 -87 99 -74 195 -121 262 -130 92 -13 171 38
292 186 55 67 103 100 145 100 44 0 97 -37 207 -142 111 -106 151 -130 182
-111 44 28 14 114 -84 244 -31 41 -74 108 -95 149 -53 104 -95 159 -135 176
-46 19 -73 18 -120 -6z"/>
<path d="M1215 8209 c-43 -26 -45 -46 -8 -90 31 -36 124 -99 147 -99 9 0 18
12 21 28 3 15 10 45 16 67 16 64 15 68 -15 83 -39 19 -136 26 -161 11z"/>
<path d="M5074 7676 c-60 -28 -117 -91 -139 -155 -22 -62 -30 -176 -16 -228
40 -147 209 -242 337 -188 186 78 219 359 61 524 -73 76 -150 91 -243 47z"/>
<path d="M6892 7595 c-51 -230 -86 -362 -98 -371 -8 -6 -55 -14 -106 -18 -157
-11 -308 -51 -308 -81 0 -18 71 -25 236 -25 l144 0 0 -24 c0 -29 -57 -230 -79
-276 -15 -33 -19 -35 -91 -46 -117 -18 -250 -57 -250 -74 0 -10 90 -20 181
-20 50 0 80 -4 87 -13 8 -9 -4 -47 -44 -141 -30 -71 -52 -131 -50 -133 5 -5
77 97 141 200 l48 77 46 0 c25 0 143 -4 261 -9 426 -19 730 -24 730 -11 0 14
-89 55 -164 74 -124 33 -490 66 -717 66 l-81 0 5 28 c2 15 16 70 29 122 14 52
29 113 34 135 l9 40 422 5 c232 3 424 8 428 12 10 10 -24 25 -111 48 -140 37
-264 51 -491 57 l-223 6 0 28 c0 15 7 102 16 193 17 187 16 242 -4 151z"/>
<path d="M10398 7489 c-31 -4 -85 -15 -120 -24 -203 -52 -438 -237 -526 -414
l-37 -75 0 -246 0 -247 47 -94 c84 -168 236 -346 438 -516 100 -83 228 -173
247 -173 19 0 0 35 -113 203 -206 308 -276 504 -252 707 24 201 180 374 375
415 329 70 796 -89 1213 -414 108 -83 305 -274 380 -367 120 -150 207 -319
249 -484 47 -187 50 -613 6 -903 -102 -673 -489 -1576 -1020 -2377 -344 -520
-678 -910 -1040 -1215 -219 -185 -597 -441 -810 -550 -218 -112 -562 -236
-873 -316 -182 -46 -332 -59 -723 -59 -582 0 -856 32 -1184 137 -330 106 -510
205 -658 363 -74 78 -93 123 -77 180 21 73 51 89 330 180 404 132 722 276
1051 475 343 209 598 406 892 694 550 538 723 862 828 1551 33 213 33 506 0
640 -28 115 -68 217 -126 328 -186 351 -383 516 -822 691 l-153 61 -137 0
c-86 0 -132 -4 -123 -10 9 -4 81 -32 160 -60 232 -83 375 -165 550 -315 320
-273 470 -582 470 -965 0 -540 -311 -1140 -895 -1726 -373 -374 -738 -638
-1185 -858 -639 -315 -1328 -461 -2090 -443 -842 20 -1456 156 -1955 435 -694
386 -1105 992 -1185 1744 -15 140 -12 401 5 557 8 74 14 136 12 138 -6 5 -56
-225 -72 -327 -29 -193 -37 -348 -32 -602 7 -387 37 -523 170 -783 173 -338
359 -558 621 -734 286 -193 720 -399 1056 -500 499 -151 1007 -199 1885 -179
215 5 399 6 410 4 36 -9 143 -122 201 -212 159 -247 468 -466 836 -592 122
-43 373 -109 533 -141 287 -57 659 -83 900 -62 568 49 746 81 1071 192 285 97
587 234 850 384 142 82 393 251 504 339 547 439 1093 1130 1592 2016 349 618
562 1206 677 1870 46 263 65 626 41 802 -5 40 -14 111 -20 158 -29 223 -176
531 -369 773 -381 478 -1026 873 -1546 947 -83 11 -376 11 -457 -1z"/>
<path d="M2172 7179 c-75 -37 -154 -120 -176 -185 -48 -142 21 -297 157 -349
35 -13 65 -16 120 -13 123 8 205 67 260 185 32 71 30 180 -5 248 -71 136 -218
184 -356 114z"/>
<path d="M5651 6618 c-6 -18 -22 -82 -36 -141 -71 -305 -187 -446 -450 -548
-152 -59 -245 -73 -485 -74 -237 0 -294 9 -400 64 -114 58 -126 128 -59 332
47 142 47 174 2 247 -19 32 -43 54 -78 71 -44 23 -62 26 -150 26 -78 -1 -114
-6 -164 -24 -117 -41 -191 -111 -191 -177 1 -38 28 -98 72 -154 46 -61 58 -99
58 -188 0 -100 -24 -181 -67 -232 -45 -52 -142 -121 -229 -162 l-69 -33 -190
1 c-176 0 -197 3 -290 28 -55 16 -116 30 -135 33 l-35 4 35 -31 c49 -44 200
-116 294 -140 97 -24 314 -27 417 -6 80 17 171 62 260 127 84 62 157 95 235
108 69 11 113 4 165 -28 49 -29 201 -66 327 -80 404 -43 788 42 1036 230 260
198 368 568 214 735 -49 53 -73 56 -87 12z"/>
<path d="M6569 6336 c-3 -4 -23 -7 -43 -8 -20 -1 -39 -4 -41 -8 -3 -4 -29 -20
-60 -35 -147 -75 -221 -215 -184 -348 13 -46 107 -151 132 -146 15 4 13 12
-15 68 -42 86 -47 152 -16 206 76 130 275 173 435 95 51 -25 93 -58 169 -134
88 -88 107 -113 147 -196 31 -64 53 -127 66 -193 24 -118 38 -148 74 -165 39
-19 86 -1 131 48 73 81 70 168 -12 309 -118 203 -339 416 -503 482 -40 16 -82
23 -164 26 -60 3 -113 2 -116 -1z"/>
<path d="M655 6185 c3 -27 15 -97 26 -154 53 -266 129 -460 218 -554 28 -30
51 -60 51 -68 0 -8 -9 -29 -21 -48 -47 -77 -110 -234 -104 -258 8 -34 19 -24
122 119 47 65 89 121 94 123 6 4 229 -122 247 -140 2 -1 -27 -44 -65 -93 -66
-87 -150 -229 -141 -238 3 -2 75 57 161 131 91 79 164 135 176 135 13 0 21 6
21 18 0 18 68 79 305 271 186 151 326 273 321 278 -7 7 -155 -55 -226 -94 -79
-43 -162 -102 -295 -206 -55 -43 -126 -98 -157 -122 -32 -25 -64 -45 -72 -45
-19 0 -212 145 -220 165 -7 18 124 184 244 309 47 49 152 149 233 224 81 74
146 137 143 139 -7 8 -222 -107 -306 -162 -120 -81 -308 -271 -391 -395 l-17
-25 -22 20 c-65 58 -174 284 -277 570 -43 119 -52 140 -48 100z"/>
<path d="M1900 5435 c-193 -55 -317 -234 -374 -540 -48 -262 -23 -408 102
-592 43 -63 128 -147 141 -139 4 3 13 29 20 59 l13 54 -57 143 c-77 195 -88
252 -82 420 6 152 22 223 72 327 66 134 178 205 326 206 63 1 86 -4 132 -27
60 -29 121 -91 166 -166 l26 -45 3 59 c6 106 -64 196 -181 231 -76 24 -239 29
-307 10z"/>
<path d="M6584 5130 c-211 -69 -422 -320 -650 -772 -116 -231 -179 -392 -231
-593 -44 -171 -43 -405 3 -514 9 -21 18 -31 24 -25 5 5 30 79 55 164 70 231
162 439 313 710 201 359 384 600 499 655 59 29 141 31 190 6 86 -43 134 -127
176 -306 18 -78 21 -122 22 -320 0 -150 -5 -256 -13 -305 -23 -129 -61 -268
-104 -379 -99 -259 -108 -356 -40 -424 58 -58 171 -45 245 29 88 88 220 437
258 679 17 105 17 549 0 677 -17 137 -55 268 -106 374 -80 166 -172 265 -305
328 -58 27 -77 31 -170 33 -83 2 -118 -1 -166 -17z"/>
<path d="M2835 4385 c-135 -24 -233 -93 -281 -197 -26 -58 -29 -73 -29 -173 1
-138 24 -227 100 -380 109 -218 283 -421 505 -587 245 -183 800 -528 850 -528
22 0 -23 62 -105 144 -46 46 -176 161 -287 254 -342 285 -485 425 -600 587
-100 141 -186 346 -173 414 9 46 63 120 115 156 40 28 42 28 148 22 283 -17
655 -110 854 -214 149 -78 249 -163 536 -450 150 -150 291 -287 314 -303 45
-33 113 -40 156 -16 57 31 79 122 48 197 -47 110 -422 512 -620 663 -234 179
-563 319 -900 380 -243 45 -489 57 -631 31z"/>
</g>
</svg>
